<?xml version="1.0" encoding="UTF-8"?>
<svg version="1.1" xmlns="http://www.w3.org/2000/svg" width="1280" height="800">
<path d="M0 0 C184.8 0 369.6 0 560 0 C556.46296411 14.14814355 544.47880347 27.28250613 535 38 C534.53094238 38.53238281 534.06188477 39.06476563 533.57861328 39.61328125 C517.61753667 57.40784128 496.40027915 65.93934254 472.90184784 67.7977581 C464.02691601 68.25776657 455.13333184 68.12885437 446.24902344 68.11352539 C443.95171612 68.11324297 441.65440871 68.11340232 439.35710144 68.1139679 C433.14932436 68.11425375 426.94156678 68.10839136 420.73379421 68.10139394 C414.23555539 68.09512503 407.73731608 68.09455381 401.23907471 68.09336853 C390.34150853 68.09061774 379.44394951 68.08437975 368.54638672 68.07543945 C357.32731155 68.06624503 346.10823833 68.05918563 334.88916016 68.05493164 C333.8393668 68.05452964 333.8393668 68.05452964 332.7683655 68.05411953 C326.67952518 68.05180634 320.5906848 68.0496537 314.50184441 68.04751682 C288.33455625 68.03812569 262.16728695 68.01819981 236 68 C236 109.91 236 151.82 236 195 C227.75 199.62 219.5 204.24 211 209 C206.01571317 211.82514023 201.03458011 214.65372874 196.0625 217.5 C194.35416992 218.47453125 194.35416992 218.47453125 192.61132812 219.46875 C186.65666956 222.87337323 180.74956599 226.32998621 174.92358398 229.95117188 C173 231 173 231 171 231 C173.40666515 233.66832407 175.98252155 235.28262452 179.1015625 237.046875 C180.65544678 237.93270264 180.65544678 237.93270264 182.24072266 238.83642578 C183.35753418 239.46790527 184.4743457 240.09938477 185.625 240.75 C187.98114344 242.09290942 190.33463566 243.44041751 192.6875 244.7890625 C193.28994537 245.13407806 193.89239075 245.47909363 194.51309204 245.83456421 C200.93142801 249.51900829 207.28297307 253.31083398 213.625 257.125 C214.64803223 257.73956055 215.67106445 258.35412109 216.72509766 258.98730469 C218.62868095 260.13407209 220.52582118 261.29163178 222.41503906 262.46191406 C224.94186374 264.01843715 224.94186374 264.01843715 227.48339844 265.18652344 C229.68543902 266.29188795 231.31479701 267.20138413 233 269 C233.93178791 272.42699474 233.4907525 275.51701226 233 279 C232.87222168 280.02480469 232.74444336 281.04960937 232.61279297 282.10546875 C232.12724756 285.58615484 231.54885392 289.03922949 230.9375 292.5 C230.71489502 293.76448975 230.49229004 295.02897949 230.26293945 296.33178711 C220.79266025 348.10027894 196.12203931 396.35365253 158 433 C155.33046265 435.65171073 152.68224128 438.32243565 150.0546875 441.015625 C143.37258209 447.83617617 136.53647746 454.11717585 129 460 C127.70617002 461.04450701 126.41326941 462.09016584 125.12109375 463.13671875 C91.34522282 490.24472359 52.44599976 510.50998418 12.88183594 527.74316406 C11.15673185 528.49552223 9.43481761 529.25536078 7.71972656 530.03027344 C4.93087656 531.27964325 3.10142705 532 0 532 C0 356.44 0 180.88 0 0 Z M66 68 C66 116.51 66 165.02 66 215 C69.60548927 213.55780429 72.53568696 212.21152631 75.82421875 210.26953125 C76.7565332 209.72184082 77.68884766 209.17415039 78.64941406 208.60986328 C79.65198242 208.0167334 80.65455078 207.42360352 81.6875 206.8125 C83.86295214 205.53459581 86.03874485 204.25727127 88.21484375 202.98046875 C89.33745605 202.32095215 90.46006836 201.66143555 91.61669922 200.98193359 C96.9809762 197.83954649 102.36403966 194.7300366 107.75 191.625 C108.81831055 191.00890869 109.88662109 190.39281738 110.98730469 189.75805664 C120.20959834 184.44515391 129.44902881 179.16236978 138.69628906 173.89306641 C140.82735057 172.67775064 142.94741723 171.4429154 145.05502319 170.18736267 C147.89248302 168.54760601 150.76911722 167.2095207 153.78109741 165.92076111 C162.79100128 162.02096523 162.79100128 162.02096523 169.06171608 154.87771225 C170.66454998 148.82450298 170.18660212 142.64903394 169.85546875 136.45703125 C169.82748049 134.7010851 169.80812947 132.9449797 169.79748535 131.18884277 C169.69846765 124.72762083 169.43318646 118.26980839 169.1875 111.8125 C168.795625 97.354375 168.40375 82.89625 168 68 C134.34 68 100.68 68 66 68 Z M99.36328125 271.5078125 C97.99817065 272.35678289 96.64860325 273.23107283 95.3125 274.125 C93.81996411 275.06531756 92.32643354 276.00405771 90.83203125 276.94140625 C90.05166504 277.44043457 89.27129883 277.93946289 88.46728516 278.45361328 C84.21859947 281.11650415 79.85428192 283.57752855 75.5 286.0625 C73.88425876 286.98886875 72.26957843 287.9170918 70.65625 288.84765625 C69.63241211 289.4355896 69.63241211 289.4355896 68.58789062 290.03540039 C67.01751151 290.9034154 67.01751151 290.9034154 66 292 C65.90380559 293.69558703 65.87812341 295.3952084 65.87974548 297.09352112 C65.87837082 298.19714996 65.87699615 299.30077881 65.87557983 300.43785095 C65.87917511 301.65920242 65.88277039 302.88055389 65.88647461 304.13891602 C65.88632858 305.41677979 65.88618256 306.69464355 65.8860321 308.01123047 C65.88574415 311.52553591 65.8916406 315.0398075 65.89860606 318.55410504 C65.90483988 322.22299356 65.90544342 325.89188277 65.90663147 329.56077576 C65.9097447 336.51290435 65.91795798 343.4650173 65.92798096 350.41713899 C65.93914234 358.3299478 65.94465261 366.24275734 65.94967639 374.15557206 C65.9601406 390.43705721 65.97773989 406.71852661 66 423 C77.48252728 417.45591107 87.49823201 408.38461203 97 400 C97.50241211 399.56075195 98.00482422 399.12150391 98.52246094 398.66894531 C115.81476459 383.49177054 130.66683257 366.08280238 142 346 C142.38897461 345.31631348 142.77794922 344.63262695 143.17871094 343.92822266 C148.35674247 334.73428611 152.86966038 325.4041939 156.6875 315.5625 C157.03876953 314.66853516 157.39003906 313.77457031 157.75195312 312.85351562 C158.06455078 312.01626953 158.37714844 311.17902344 158.69921875 310.31640625 C158.97596436 309.57849854 159.25270996 308.84059082 159.5378418 308.08032227 C160.09942609 305.55245127 160.0891793 304.36028679 159 302 C156.83936561 300.28132893 156.83936561 300.28132893 154.05859375 298.8203125 C153.0109082 298.22766602 151.96322266 297.63501953 150.88378906 297.02441406 C149.74651367 296.39760742 148.60923828 295.77080078 147.4375 295.125 C146.26581391 294.46722137 145.09492347 293.80802361 143.92480469 293.14746094 C142.11384852 292.12559666 140.30230684 291.10491966 138.48794556 290.08911133 C131.17654852 285.99471929 123.96573404 281.73089083 116.74389648 277.48095703 C114.93437256 276.42113551 113.11890757 275.37135562 111.29614258 274.33447266 C109.42300482 273.24584203 107.60580517 272.06143555 105.80859375 270.8515625 C102.8239223 269.6222758 102.8239223 269.6222758 99.36328125 271.5078125 Z " fill="#00359E" transform="translate(659,153)"/>
<path d="M0 0 C185.13 0 370.26 0 561 0 C561 65.01 561 130.02 561 197 C553.68551541 193.3427577 546.54815453 189.71687516 539.5 185.625 C537.69677723 184.58565527 535.89338181 183.54661003 534.08984375 182.5078125 C533.12546387 181.95125977 532.16108398 181.39470703 531.16748047 180.82128906 C527.6607212 178.804916 524.14573978 176.80341549 520.62890625 174.8046875 C518.73106154 173.72493551 516.8333012 172.64503534 514.93554688 171.56512451 C513.6974646 170.86107818 512.45902651 170.15765715 511.22021484 169.45489502 C509.46985694 168.46157521 507.72122919 167.46520859 505.97265625 166.46875 C504.96468994 165.89576172 503.95672363 165.32277344 502.91821289 164.73242188 C501.95520264 164.16072266 500.99219238 163.58902344 500 163 C498.96386063 162.4859259 497.92772125 161.97185181 496.86018372 161.44219971 C493.58145509 158.64262077 493.58145509 158.64262077 493.2784729 155.06427002 C493.26103293 153.4403455 493.27702981 151.81586249 493.31884766 150.19238281 C493.31812445 149.28989178 493.31740124 148.38740074 493.31665611 147.45756149 C493.32113187 144.53851057 493.36679967 141.62176405 493.4140625 138.703125 C493.42288526 136.90023912 493.42900569 135.09733792 493.43237305 133.29443359 C493.4638184 126.61272121 493.54758618 119.93133792 493.625 113.25 C493.74875 98.3175 493.8725 83.385 494 68 C460.34 68 426.68 68 392 68 C391.71125 82.251875 391.4225 96.50375 391.125 111.1875 C390.90287842 117.90130005 390.90287842 117.90130005 390.67626953 124.75073242 C389.64709889 142.64412247 389.64709889 142.64412247 395.06854248 159.10482788 C400.1293005 163.79480498 405.84602673 166.17915101 412.38336182 168.1701355 C415.75165333 169.23838619 418.34914013 170.74753799 421.3359375 172.62109375 C423.01458569 173.56175293 424.6942452 174.50061006 426.375 175.4375 C435.23567754 180.41311709 444.03106935 185.4915196 452.80151367 190.62426758 C472.53483371 202.17061376 492.37733323 213.52815961 512.24169922 224.84716797 C515.18211487 226.52281695 518.12203666 228.19932484 521.06158447 229.87649536 C522.70835462 230.81560842 524.35586163 231.75342901 526.00341797 232.69116211 C528.20768801 233.94883839 530.39627023 235.23435966 532.56934357 236.54520226 C535.92015442 238.49313439 539.34283649 240.02641675 542.90914154 241.54033852 C558.89909673 248.80823909 558.89909673 248.80823909 562.37628937 255.74599791 C564.54199741 263.75450364 564.00852774 271.98636095 563.72460938 280.20068359 C563.70441701 282.9516424 563.72060019 285.70211435 563.73522949 288.45307922 C563.74775537 294.35469093 563.67314939 300.24988689 563.53752136 306.14988327 C563.34158734 314.67886975 563.27988544 323.20478691 563.24980956 331.7357796 C563.19741286 345.57821242 563.03807224 359.41723128 562.81054688 373.2578125 C562.58989778 386.69416334 562.42019646 400.12958359 562.31835938 413.56738281 C562.31205401 414.39707645 562.30574865 415.22677009 562.29925221 416.08160596 C562.26792896 420.24436714 562.23760054 424.40713486 562.20776653 428.56990695 C561.95937446 463.0490607 561.53703771 497.52416081 561 532 C559.39708575 531.52720421 557.79479864 531.05228188 556.19277954 530.57646179 C555.30043924 530.31221751 554.40809895 530.04797323 553.48871803 529.77572155 C550.66790543 528.8964877 548.01651648 527.8233783 545.3359375 526.58203125 C544.367771 526.13674072 543.39960449 525.6914502 542.40209961 525.23266602 C541.40315674 524.76401123 540.40421387 524.29535645 539.375 523.8125 C538.31740479 523.32128662 537.25980957 522.83007324 536.17016602 522.32397461 C528.43786886 518.71549074 520.75778956 515.02156676 513.171875 511.11474609 C510.69316151 509.84251073 508.20559449 508.58829511 505.71875 507.33203125 C485.5024401 497.03949358 466.27926566 485.43933054 448 472 C446.91544986 471.21342407 445.83081934 470.42695896 444.74609375 469.640625 C421.16582794 452.30129004 398.25985909 431.69523611 381 408 C379.84371094 406.50146484 379.84371094 406.50146484 378.6640625 404.97265625 C345.73966094 362.21588221 324.91573999 305.32713299 326 251 C334.94967385 255.28336213 343.52253862 259.97768627 352.0390625 265.05859375 C356.89920096 267.95470365 361.79947646 270.778697 366.70678711 273.59399414 C368.98389759 274.90535346 371.25559202 276.22616312 373.52172852 277.55639648 C378.19490996 280.29373719 382.79920292 282.99069503 387.75390625 285.1875 C393.92407108 288.03543808 397.63581505 290.41110264 400.2421875 296.91015625 C401.86180336 301.66119529 403.11464907 306.48738315 404.31445312 311.35888672 C414.33767893 349.97400665 444.78730339 383.84168853 474.875 408.5 C475.52275391 409.03391357 476.17050781 409.56782715 476.83789062 410.11791992 C482.07803846 414.38302039 487.42309575 418.09616702 493 422 C493.33 378.77 493.66 335.54 494 291 C492.35 290.34 490.7 289.68 489 289 C487.08344321 287.974849 485.1849447 286.91556831 483.30078125 285.83203125 C482.18767578 285.19394531 481.07457031 284.55585938 479.92773438 283.8984375 C478.72261549 283.20319565 477.51753848 282.5078812 476.3125 281.8125 C475.05419073 281.08957516 473.79572468 280.36692315 472.53710938 279.64453125 C468.68877028 277.43425107 464.84404707 275.21773404 461 273 C459.8764209 272.35208496 458.7528418 271.70416992 457.59521484 271.03662109 C453.32742358 268.57500283 449.06012727 266.11253413 444.79418945 263.64770508 C436.87627397 259.07473055 428.94159495 254.53165773 421 250 C408.71747153 242.99058673 396.46242078 235.93427506 384.21777344 228.85888672 C379.89581921 226.36212196 375.57236408 223.86796327 371.2487793 221.37402344 C369.09908384 220.13399471 366.9495052 218.89376343 364.80004883 217.65332031 C359.71313934 214.71777623 354.62542411 211.78365268 349.5350647 208.85409546 C347.12456252 207.46671905 344.71448624 206.07860376 342.30444336 204.69042969 C340.59856032 203.70826185 338.89206014 202.72716615 337.18554688 201.74609375 C335.64157227 200.85664063 335.64157227 200.85664063 334.06640625 199.94921875 C333.15834229 199.42674561 332.25027832 198.90427246 331.31469727 198.3659668 C329.50873799 197.30022034 327.74478871 196.16319248 326 195 C325.63085651 192.77049828 325.63085651 192.77049828 325.63923645 189.93807983 C325.63305046 188.33105949 325.63305046 188.33105949 325.6267395 186.6915741 C325.63752533 185.51122086 325.64831116 184.33086761 325.65942383 183.11474609 C325.65898575 181.87575058 325.65854767 180.63675507 325.65809631 179.36021423 C325.6598315 175.95733587 325.67490354 172.55499973 325.69581819 169.15221739 C325.71453888 165.59812731 325.71633178 162.04403045 325.71989441 158.48989868 C325.72922848 151.75731993 325.75386054 145.02488687 325.78394288 138.29237235 C325.81744465 130.62864712 325.83396224 122.96491502 325.84902918 115.30113482 C325.88040902 99.53400543 325.93319581 83.76702148 326 68 C324.80969712 68.00184359 323.61939425 68.00368717 322.39302158 68.00558662 C294.07450922 68.04899534 265.75599771 68.08192744 237.43745935 68.10213066 C233.94439016 68.10463178 230.45132104 68.10722045 226.95825195 68.10986328 C226.26290737 68.1103879 225.56756279 68.11091252 224.85114717 68.11145304 C213.62379782 68.12013212 202.39646917 68.13588819 191.16913206 68.15430559 C179.63049351 68.17307439 168.09186944 68.18398192 156.55321592 68.18817699 C150.07987565 68.19077557 143.60658214 68.19684782 137.13325691 68.21146011 C131.0290768 68.22512632 124.92496232 68.22920451 118.82076836 68.22621536 C116.59128842 68.22676151 114.36180609 68.2306847 112.13233948 68.23841095 C83.93690933 68.33125514 55.79955672 65.982927 34 46 C33.0821875 45.16210938 32.164375 44.32421875 31.21875 43.4609375 C18.60177333 31.56399048 8.49269535 17.0688975 0 2 C0 1.34 0 0.68 0 0 Z " fill="#FF0000" transform="translate(60,153)"/>
<path d="M0 0 C73.92 0 147.84 0 224 0 C208.61089202 28.21336463 189.68506949 52.68593068 157.875 62.375 C146.22778605 65.28436914 134.81304026 66.2970364 122.83447266 66.22705078 C121.48267119 66.2264847 120.13086911 66.22680706 118.77906799 66.22793579 C115.15805588 66.22850263 111.53718003 66.21685852 107.91619921 66.20278788 C104.11392973 66.19016724 100.31165609 66.18910119 96.5093689 66.18673706 C89.33098889 66.18055523 82.15267081 66.16418974 74.97431791 66.14403808 C65.25881693 66.11736406 55.54329867 66.10667975 45.82777023 66.09503365 C30.55180056 66.07630622 15.27596149 66.03643882 0 66 C0 44.22 0 22.44 0 0 Z " fill="#00359E" transform="translate(920,266)"/>
<path d="M0 0 C73.59 0 147.18 0 223 0 C223 21.78 223 43.56 223 66 C189.4589193 66.08060607 189.4589193 66.08060607 175.33984375 66.09765625 C165.61374793 66.10949622 155.88768691 66.12337036 146.16162109 66.15087891 C139.07632072 66.17090881 131.99104874 66.18373905 124.90572083 66.18817699 C121.15940019 66.19076823 117.41316074 66.19679254 113.6668663 66.21146011 C110.12924907 66.22519636 106.59174523 66.22919084 103.05410385 66.22621536 C101.16026093 66.22701428 99.2664299 66.2376909 97.37261963 66.24884033 C74.4025041 66.19456566 51.51278403 60.45635863 34 45 C33.21625 44.35804688 32.4325 43.71609375 31.625 43.0546875 C18.65735088 32.07270965 8.22429027 16.78790655 0 2 C0 1.34 0 0.68 0 0 Z " fill="#FF0000" transform="translate(136,266)"/>
<path d="M0 0 C45.21 0 90.42 0 137 0 C126.81232137 25.46919657 104.80211561 47.62105382 80.30859375 59.28125 C67.51892312 64.70094991 54.79950244 66.15727963 41.06640625 66.09765625 C39.21679543 66.09553383 39.21679543 66.09553383 37.32981873 66.09336853 C33.40735405 66.08778941 29.48494731 66.07524068 25.5625 66.0625 C22.89648521 66.05691698 20.23047096 66.05291987 17.56445312 66.04882812 C11.04294657 66.0378268 4.52148309 66.0205765 -2 66 C-1.67 61.05 -1.34 56.1 -1 51 C-0.67 34.17 -0.34 17.34 0 0 Z " fill="#00359E" transform="translate(920,366)"/>
<path d="M0 0 C44.55 0 89.1 0 135 0 C135.66 16.83 136.32 33.66 137 51 C137.33 55.95 137.66 60.9 138 66 C130.39098794 66.10013885 122.78237359 66.1720598 115.17285156 66.21972656 C112.59335636 66.23963305 110.01390501 66.26676812 107.43457031 66.30175781 C77.2308613 66.700719 53.66381484 62.77930252 30 43 C27.52726525 40.45353692 25.28178717 37.71794367 23 35 C22.30777344 34.195625 21.61554688 33.39125 20.90234375 32.5625 C0 7.78935185 0 7.78935185 0 0 Z " fill="#FF0000" transform="translate(224,366)"/>
</svg>
